<svg xmlns="http://www.w3.org/2000/svg" width="256" height="256" viewBox="0 0 256 256">
  <defs>
    <linearGradient id="background" x1="32" y1="24" x2="224" y2="232" gradientUnits="userSpaceOnUse">
      <stop stop-color="#172554"/>
      <stop offset="1" stop-color="#101827"/>
    </linearGradient>
  </defs>
  <rect x="8" y="8" width="240" height="240" rx="52" fill="url(#background)"/>
  <rect x="9.5" y="9.5" width="237" height="237" rx="50.5" fill="none" stroke="#334155" stroke-width="3"/>
  <g transform="translate(32 32) scale(8)" fill="#F8FAFC">
    <path d="M3 4.5A1.5 1.5 0 0 1 4.5 3h15A1.5 1.5 0 0 1 21 4.5v15a1.5 1.5 0 0 1-1.5 1.5h-15A1.5 1.5 0 0 1 3 19.5v-15Zm2 1v13.5h14V5H5Zm1.5 2.25 3.25 2.75-3.25 2.75v-2l1-.75-1-.75v-2Zm4.5 5.75h5v1.5h-5v-1.5Z"/>
  </g>
  <circle cx="205" cy="51" r="22" fill="#101827"/>
  <circle cx="205" cy="51" r="15" fill="#2DD4BF"/>
</svg>
